 <svg version="1.1" id="fancy-borders" xmlns="http://www.w3.org/2000/svg" xmlns:xlink="http://www.w3.org/1999/xlink" x="0px" y="0px" viewBox="0 0 497.9 284.9" enable-background="new 0 0 497.9 284.9" xml:space="preserve">
  <defs>
      <clipPath id="topLeftCorner">
          <rect width="30" height="30" x="0" y="0"/>
      </clipPath>
      <clipPath id="topLeftBar">
          <rect width="160" height="5" x="30" y="0"/>
      </clipPath>
      <clipPath id="topRightCorner">
          <rect width="30" height="30" x="94%" y=""/>
      </clipPath>
      <clipPath id="topRightBarClip">
          <rect width="160" height="5" x="61.8%" y=""/>
      </clipPath>
      <clipPath id="sideBarLeftTop">
          <rect width="8" height="110" x="0" y="29"/>
      </clipPath>
      <clipPath id="sideBarLeftBottom">
          <rect width="8" height="110" x="0" y="51%"/>
      </clipPath>
      <clipPath id="sideBarRightTop">
          <rect width="8" height="110" x="98.5%" y="29"/>
      </clipPath>
      <clipPath id="sideBarRightBottom">
          <rect width="8" height="110" x="98.5%" y="51%"/>
      </clipPath>
      <clipPath id="bottomLeftBar">
          <rect width="160" height="8" x="30" y="98.5%"/>
      </clipPath>
      <clipPath id="bottomRightBar">
          <rect width="160" height="8" x="61.8%" y="98.5%"/>
      </clipPath>
      <clipPath id="bottomLeftCorner">
          <rect width="30" height="30" x="0" y="90%"/>
      </clipPath>
      <clipPath id="bottomRightCorner">
          <rect width="30" height="30" x="94%" y="90%"/>
      </clipPath>
      <clipPath id="diamondLeft">
          <rect width="10" height="5" x="0" y="49.2%"/>
      </clipPath>
      <clipPath id="diamondRight">
          <rect width="10" height="5" x="98%" y="49.2%"/>
      </clipPath>
  </defs>
    <g clip-path="url(#topLeftBar)">
        <path class="bar top left" fill="#A7965D" d="M32.9,2.5c-0.3,0-0.6,0-0.9-0.2c0.3-0.1,0.5-0.3,0.5-0.7c0-0.4-0.3-0.8-0.8-0.8c-0.3,0-0.5,0.1-0.6,0.3
	c-0.2,0.3-0.2,0.6-0.1,0.9c0.2,0.5,0.5,0.8,1,1c0.3,0.1,0.6,0.1,0.9,0.1l3.5,0h146.9l3.5,0c0.3,0,0.6,0,0.9-0.1c0.5-0.1,0.9-0.4,1-1
	c0.1-0.3,0.1-0.7-0.1-0.9c-0.1-0.2-0.4-0.3-0.6-0.3c-0.4,0-0.8,0.4-0.8,0.8c0,0.4,0.2,0.6,0.5,0.7c-0.3,0.2-0.6,0.2-0.9,0.2H32.9z"
            />
    </g>
    <g clip-path="url(#topLeftCorner)">
        <path class="corner top left" fill="#A7965D" d="M29.2,2.5c-0.4-1-1.2-1.8-2.2-2.2C26.3,0.1,25.7,0,25,0c-0.7,0-1.3,0.2-1.9,0.6c-1,0.6-1.7,1.3-2.2,2.2
	c-0.4,0.9-0.7,1.9-0.8,2.9c0,0.3-0.1,0.7-0.1,1c0,0.4-0.1,0.7-0.1,1.1c-0.2-0.7-0.5-1.4-0.9-2c-0.7-1.1-1.9-2-3.2-2.3
	C14,3.2,12,3.9,11,5.5c-0.4,0.6-0.6,1.3-0.6,2.1c0,0.3,0,0.6,0.1,0.9l-0.2-0.2C9.4,7.4,9.1,6.7,9.1,5.5c0-0.2-0.1-0.3-0.3-0.4
	c-1.3-0.4-2.5-1-3.5-1.7c-0.1-0.1-0.2,0-0.2,0C5,3.5,5,3.6,5,3.7c0.7,1.1,1.3,2.2,1.7,3.5c0,0.2,0.2,0.3,0.4,0.3
	c1.2,0,1.9,0.3,2.7,1.1L10,8.9C9.7,8.8,9.4,8.8,9.2,8.8C8.4,8.8,7.7,9,7.1,9.4c-1.6,1-2.3,3-1.9,4.8c0.3,1.3,1.1,2.4,2.3,3.2
	c0.6,0.4,1.3,0.7,2,0.9c-0.4,0.1-0.8,0.1-1.1,0.1c-0.3,0-0.6,0.1-1,0.1c-1.1,0.1-2.1,0.4-2.9,0.8c-0.9,0.5-1.7,1.1-2.2,2.2
	c-0.3,0.6-0.5,1.2-0.6,1.9c0,0.6,0.1,1.3,0.3,1.9c0.4,1,1.2,1.8,2.2,2.2c1.8,0.8,4.1,0.1,4.9-1.8c0.6-1.5,0.1-3.3-1.4-4
	c-0.6-0.3-1.4-0.3-2.1,0c-0.3,0.1-0.6,0.3-0.8,0.6c-0.2,0.3-0.4,0.6-0.5,0.9c-0.1,0.5-0.1,0.9,0.1,1.2c0.1,0.4,0.4,0.7,0.8,0.9
	c0.2,0.1,0.5,0.2,0.8,0.2c0.5,0,1-0.3,1.1-0.8c0.1-0.3,0-0.6-0.3-0.9c-0.4-0.4-1-0.4-1.3,0C5.1,24.2,5,24.4,5,24.6
	c-0.1-0.1-0.2-0.2-0.2-0.3c-0.1-0.2-0.1-0.5,0-0.8C4.9,23.2,5,23,5.2,22.8c0.2-0.2,0.4-0.3,0.6-0.4c0.5-0.2,1.1-0.2,1.6,0
	c1.2,0.5,1.6,2,1.1,3.2c-0.7,1.6-2.6,2-4,1.4c-0.8-0.3-1.5-1-1.8-1.9c-0.2-0.6-0.3-1.1-0.3-1.7c0-0.6,0.2-1.1,0.5-1.6
	c0.5-0.9,1.2-1.5,2-1.9c0.8-0.4,1.7-0.6,2.7-0.8c0.3,0,0.6-0.1,1-0.1c0.8-0.1,1.7-0.2,2.7-0.4c1.3-0.3,2.7-0.6,3.9-1.2
	c0.8-0.4,1.6-1,2.3-1.7c0.7-0.7,1.3-1.5,1.7-2.3c0.6-1.2,1-2.6,1.2-3.9c0.2-1,0.3-1.9,0.4-2.7c0-0.3,0.1-0.7,0.1-1
	c0.1-1,0.3-1.9,0.8-2.7c0.4-0.8,1-1.5,1.9-2c0.5-0.3,1-0.4,1.6-0.5c0.5,0,1.1,0.1,1.7,0.3c0.9,0.4,1.5,1,1.9,1.8
	c0.6,1.5,0.2,3.4-1.4,4C26,7.3,24.5,6.9,24,5.7c-0.2-0.5-0.2-1,0-1.6c0.1-0.2,0.2-0.4,0.4-0.6c0.2-0.2,0.4-0.3,0.7-0.3
	c0.3-0.1,0.6-0.1,0.8,0c0.1,0,0.2,0.1,0.3,0.2c-0.2,0-0.5,0.1-0.7,0.3c-0.4,0.4-0.4,1,0,1.3c0.2,0.2,0.6,0.3,0.9,0.3
	c0.5-0.1,0.8-0.6,0.8-1.1c0-0.3-0.1-0.6-0.2-0.8c-0.2-0.4-0.5-0.7-0.9-0.8c-0.4-0.2-0.8-0.2-1.2-0.1c-0.3,0.1-0.7,0.2-0.9,0.5
	c-0.3,0.2-0.5,0.5-0.6,0.8c-0.3,0.7-0.3,1.4,0,2.1c0.7,1.6,2.5,2.1,4,1.4C29.3,6.6,29.9,4.3,29.2,2.5z M14.7,16.9
	c-0.4,0.2-0.9,0.4-1.4,0.6c-1.2,0.4-2.1,0.5-3.4,0.3c-0.8-0.1-1.5-0.4-2.1-0.8c-1-0.6-1.7-1.6-2-2.8c-0.4-1.5,0.3-3.3,1.7-4.2
	C8,9.6,8.6,9.4,9.2,9.4c0.7,0,1.3,0.2,1.8,0.6c0.2,0.2,0.4,0.4,0.6,0.6c0.4,0.5,0.5,1.1,0.4,1.6c-0.2,1-1.2,2-2.3,1.8
	c-0.1,0-0.2,0-0.3-0.1c0,0,0.1-0.1,0.1-0.1c0.4-0.4,0.4-1,0-1.3c-0.4-0.4-1-0.4-1.3,0C8,12.7,7.9,13,7.9,13.2c0,0.4,0.3,0.8,0.6,1
	c0.3,0.2,0.7,0.4,1.1,0.5c1.4,0.2,2.8-0.9,3-2.3l0,0c0,0.1,0.1,0.2,0.1,0.3c0.3,0.9,0.4,1.7,0.2,2.5l-0.1,0.2l0.2,0.1
	c0.7,0.4,1.4,0.5,2.1,0.5c0.3,0,0.6,0,0.9-0.1C15.6,16.3,15.1,16.6,14.7,16.9z M16.7,15.1c-0.5,0.2-1.1,0.2-1.6,0.2
	c-0.5,0-1-0.1-1.6-0.3c0.2-0.8,0.1-1.7-0.2-2.6c-0.2-0.4-0.4-0.9-0.6-1.3c0.4,0.3,0.9,0.5,1.3,0.6c0.9,0.3,1.8,0.4,2.6,0.2
	c0.2,0.5,0.3,1,0.3,1.6C17,14.1,16.9,14.6,16.7,15.1z M19,11.7c-0.2,0.5-0.3,1-0.6,1.4c-0.3,0.5-0.6,0.9-0.9,1.4
	c0-0.3,0.1-0.6,0.1-0.9c0-0.7-0.2-1.4-0.5-2.1L17,11.2l-0.2,0.1c-0.8,0.2-1.6,0.1-2.5-0.2c-0.1,0-0.2-0.1-0.3-0.1l0,0
	c1.4-0.3,2.5-1.6,2.3-3c-0.1-0.4-0.2-0.8-0.5-1.1c-0.3-0.3-0.6-0.6-1-0.6c-0.2,0-0.5,0.1-0.7,0.3c-0.4,0.4-0.4,1,0,1.3
	c0.4,0.4,1,0.4,1.3,0c0,0,0.1-0.1,0.1-0.1c0,0.1,0,0.2,0.1,0.3c0.2,1.1-0.8,2.1-1.8,2.3c-0.5,0.1-1.1,0-1.6-0.4
	c-0.3-0.2-0.5-0.4-0.6-0.6C11.2,8.9,11,8.2,11,7.6c0-0.6,0.2-1.2,0.5-1.7c0.8-1.4,2.6-2,4.2-1.7c1.1,0.3,2.1,1,2.8,2
	c0.4,0.6,0.7,1.3,0.8,2.1C19.6,9.6,19.4,10.5,19,11.7z"/>
    </g>
    <g clip-path="url(#topRightBarClip)">
        <path class="bar top right" fill="#A7965D" d="M464.7,2.5c0.3,0,0.6,0,0.9-0.2c-0.3-0.1-0.5-0.3-0.5-0.7c0-0.4,0.3-0.8,0.8-0.8c0.3,0,0.5,0.1,0.6,0.3
	c0.2,0.3,0.2,0.6,0.1,0.9c-0.2,0.5-0.5,0.8-1,1c-0.3,0.1-0.6,0.1-0.9,0.1l-3.5,0H314.3l-3.5,0c-0.3,0-0.6,0-0.9-0.1
	c-0.5-0.1-0.9-0.4-1-1c-0.1-0.3-0.1-0.7,0.1-0.9c0.1-0.2,0.4-0.3,0.6-0.3c0.4,0,0.8,0.4,0.8,0.8c0,0.4-0.2,0.6-0.5,0.7
	c0.3,0.2,0.6,0.2,0.9,0.2H464.7z"/>
    </g>
    <g clip-path="url(#sideBarRightTop)">
        <path class="bar top side right" fill="#A7965D" d="M493.5,136.8c0,0.3,0,0.6,0.2,0.9c0.1-0.3,0.3-0.5,0.7-0.5c0.4,0,0.8,0.3,0.8,0.8c0,0.3-0.1,0.5-0.3,0.6
	c-0.3,0.2-0.6,0.2-0.9,0.1c-0.5-0.2-0.8-0.5-1-1c-0.1-0.3-0.1-0.6-0.1-0.9l0-3.5V34.9l0-3.5c0-0.3,0-0.6,0.1-0.9
	c0.1-0.5,0.4-0.9,1-1c0.3-0.1,0.7-0.1,0.9,0.1c0.2,0.1,0.3,0.4,0.3,0.6c0,0.4-0.4,0.8-0.8,0.8c-0.4,0-0.6-0.2-0.7-0.5
	c-0.2,0.3-0.2,0.6-0.2,0.9V136.8z"/>
    </g>
    <g clip-path="url(#sideBarRightBottom)">
        <path class="bar bottom side right" fill="#A7965D" d="M493.5,253.4c0,0.3,0,0.6,0.2,0.9c0.1-0.3,0.3-0.5,0.7-0.5c0.4,0,0.8,0.3,0.8,0.8c0,0.3-0.1,0.5-0.3,0.6
	c-0.3,0.2-0.6,0.2-0.9,0.1c-0.5-0.2-0.8-0.5-1-1c-0.1-0.3-0.1-0.6-0.1-0.9l0-3.5v-98.4l0-3.5c0-0.3,0-0.6,0.1-0.9
	c0.1-0.5,0.4-0.9,1-1c0.3-0.1,0.7-0.1,0.9,0.1c0.2,0.1,0.3,0.4,0.3,0.6c0,0.4-0.4,0.8-0.8,0.8c-0.4,0-0.6-0.2-0.7-0.5
	c-0.2,0.3-0.2,0.6-0.2,0.9V253.4z"/>
    </g>
    <g clip-path="url(#topRightCorner)">
        <path class="corner top right" fill="#A7965D" d="M470.2,7.4c1.5,0.6,3.3,0.1,4-1.4c0.3-0.6,0.3-1.4,0-2.1c-0.1-0.3-0.3-0.6-0.6-0.8c-0.3-0.2-0.6-0.4-0.9-0.5
	c-0.5-0.1-0.9-0.1-1.2,0.1c-0.4,0.1-0.7,0.4-0.9,0.8c-0.1,0.2-0.2,0.5-0.2,0.8c0,0.5,0.3,1,0.8,1.1c0.3,0.1,0.6,0,0.9-0.3
	c0.4-0.4,0.4-1,0-1.3c-0.2-0.2-0.4-0.3-0.7-0.3c0.1-0.1,0.2-0.2,0.3-0.2c0.2-0.1,0.5-0.1,0.8,0c0.2,0.1,0.5,0.2,0.7,0.3
	c0.2,0.2,0.3,0.4,0.4,0.6c0.2,0.5,0.2,1.1,0,1.6c-0.5,1.2-2,1.6-3.2,1.1c-1.6-0.7-2-2.6-1.4-4c0.3-0.8,1-1.5,1.9-1.8
	c0.6-0.2,1.1-0.3,1.7-0.3c0.6,0,1.1,0.2,1.6,0.5c0.9,0.5,1.5,1.2,1.9,2c0.4,0.8,0.6,1.7,0.8,2.7c0,0.3,0.1,0.6,0.1,1
	c0.1,0.8,0.2,1.7,0.4,2.7c0.3,1.3,0.6,2.7,1.2,3.9c0.4,0.8,1,1.6,1.7,2.3c0.7,0.7,1.5,1.3,2.3,1.7c1.2,0.6,2.6,1,3.9,1.2
	c1,0.2,1.9,0.3,2.7,0.4c0.3,0,0.7,0.1,1,0.1c1,0.1,1.9,0.3,2.7,0.8c0.8,0.4,1.5,1,2,1.9c0.3,0.5,0.4,1,0.5,1.6
	c0,0.5-0.1,1.1-0.3,1.7c-0.4,0.9-1,1.5-1.8,1.9c-1.5,0.6-3.4,0.2-4-1.4c-0.5-1.2-0.1-2.6,1.1-3.2c0.5-0.2,1-0.2,1.6,0
	c0.2,0.1,0.4,0.2,0.6,0.4c0.2,0.2,0.3,0.4,0.3,0.7c0.1,0.3,0.1,0.6,0,0.8c0,0.1-0.1,0.2-0.2,0.3c0-0.2-0.1-0.5-0.3-0.7
	c-0.4-0.4-1-0.4-1.3,0c-0.2,0.2-0.3,0.6-0.3,0.9c0.1,0.5,0.6,0.8,1.1,0.8c0.3,0,0.6-0.1,0.8-0.2c0.4-0.2,0.7-0.5,0.8-0.9
	c0.2-0.4,0.2-0.8,0.1-1.2c-0.1-0.3-0.2-0.7-0.5-0.9c-0.2-0.3-0.5-0.5-0.8-0.6c-0.7-0.3-1.4-0.3-2.1,0c-1.6,0.7-2.1,2.5-1.4,4
	c0.8,1.9,3.1,2.5,4.9,1.8c1-0.4,1.8-1.2,2.2-2.2c0.3-0.7,0.4-1.3,0.3-1.9c0-0.7-0.2-1.3-0.6-1.9c-0.6-1-1.3-1.7-2.2-2.2
	c-0.9-0.4-1.9-0.7-2.9-0.8c-0.3,0-0.7-0.1-1-0.1c-0.4,0-0.7-0.1-1.1-0.1c0.7-0.2,1.4-0.5,2-0.9c1.1-0.7,2-1.9,2.3-3.2
	c0.4-1.8-0.3-3.8-1.9-4.8c-0.6-0.4-1.3-0.6-2.1-0.6c-0.3,0-0.6,0-0.9,0.1l0.2-0.2c0.8-0.8,1.5-1.2,2.7-1.1c0.2,0,0.3-0.1,0.4-0.3
	c0.4-1.3,1-2.5,1.7-3.5c0.1-0.1,0-0.2,0-0.2c-0.1-0.1-0.2-0.1-0.2,0c-1.1,0.7-2.2,1.3-3.5,1.7c-0.2,0-0.3,0.2-0.3,0.4
	c0,1.2-0.3,1.9-1.1,2.7l-0.2,0.2c0.1-0.3,0.1-0.6,0.1-0.9c0-0.7-0.2-1.5-0.6-2.1c-1-1.6-3-2.3-4.8-1.9c-1.3,0.3-2.4,1.1-3.2,2.3
	c-0.4,0.6-0.7,1.3-0.9,2c-0.1-0.4-0.1-0.8-0.1-1.1c0-0.3-0.1-0.6-0.1-1c-0.1-1.1-0.4-2.1-0.8-2.9c-0.5-0.9-1.1-1.7-2.2-2.2
	c-0.6-0.3-1.2-0.5-1.9-0.6c-0.6,0-1.3,0.1-1.9,0.3c-1,0.4-1.8,1.2-2.2,2.2C467.7,4.3,468.3,6.6,470.2,7.4z M481.6,16
	c0.3,0,0.6,0.1,0.9,0.1c0.7,0,1.4-0.2,2.1-0.5l0.2-0.1l-0.1-0.2c-0.2-0.8-0.1-1.6,0.2-2.5c0-0.1,0.1-0.2,0.1-0.3l0,0
	c0.3,1.4,1.6,2.5,3,2.3c0.4-0.1,0.8-0.2,1.1-0.5c0.3-0.3,0.6-0.6,0.6-1c0-0.2-0.1-0.5-0.3-0.7c-0.4-0.4-1-0.4-1.3,0
	c-0.4,0.4-0.4,1,0,1.3c0,0,0.1,0.1,0.1,0.1c-0.1,0-0.2,0-0.3,0.1c-1.1,0.2-2.1-0.8-2.3-1.8c-0.1-0.5,0-1.1,0.4-1.6
	c0.2-0.3,0.4-0.5,0.6-0.6c0.5-0.4,1.2-0.6,1.8-0.6c0.6,0,1.2,0.2,1.7,0.5c1.4,0.8,2,2.6,1.7,4.2c-0.3,1.1-1,2.1-2,2.8
	c-0.6,0.4-1.3,0.7-2.1,0.8c-1.3,0.3-2.2,0.1-3.4-0.3c-0.5-0.2-1-0.3-1.4-0.6C482.5,16.6,482,16.3,481.6,16z M480.6,13.5
	c0-0.5,0.1-1,0.3-1.6c0.8,0.2,1.7,0.1,2.6-0.2c0.4-0.2,0.9-0.4,1.3-0.6c-0.3,0.4-0.5,0.9-0.6,1.3c-0.3,0.9-0.4,1.8-0.2,2.6
	c-0.5,0.2-1,0.3-1.6,0.3c-0.5,0-1.1-0.1-1.6-0.2C480.7,14.6,480.6,14.1,480.6,13.5z M478.3,8.3c0.1-0.8,0.4-1.5,0.8-2.1
	c0.6-1,1.6-1.7,2.8-2c1.5-0.4,3.3,0.3,4.2,1.7c0.3,0.5,0.5,1.1,0.5,1.7c0,0.7-0.2,1.3-0.6,1.8c-0.2,0.2-0.4,0.4-0.6,0.6
	c-0.5,0.4-1.1,0.5-1.6,0.4c-1-0.2-2-1.2-1.8-2.3c0-0.1,0-0.2,0.1-0.3c0,0,0.1,0.1,0.1,0.1c0.4,0.4,1,0.4,1.3,0c0.4-0.4,0.4-1,0-1.3
	c-0.2-0.2-0.4-0.3-0.7-0.3c-0.4,0-0.8,0.3-1,0.6c-0.2,0.3-0.4,0.7-0.5,1.1c-0.2,1.4,0.9,2.8,2.3,3l0,0c-0.1,0-0.2,0.1-0.3,0.1
	c-0.9,0.3-1.7,0.4-2.5,0.2l-0.2-0.1l-0.1,0.2c-0.4,0.7-0.5,1.4-0.5,2.1c0,0.3,0,0.6,0.1,0.9c-0.3-0.4-0.6-0.9-0.9-1.4
	c-0.2-0.4-0.4-0.9-0.6-1.4C478.2,10.5,478,9.6,478.3,8.3z"/>
    </g>
    <g clip-path="url(#bottomRightBar)">
        <path class="bar bottom right" fill="#A7965D" d="M464.7,282.3c0.3,0,0.6,0,0.9,0.2c-0.3,0.1-0.5,0.3-0.5,0.7c0,0.4,0.3,0.8,0.8,0.8c0.3,0,0.5-0.1,0.6-0.3
	c0.2-0.3,0.2-0.6,0.1-0.9c-0.2-0.5-0.5-0.8-1-1c-0.3-0.1-0.6-0.1-0.9-0.1l-3.5,0H314.3l-3.5,0c-0.3,0-0.6,0-0.9,0.1
	c-0.5,0.1-0.9,0.4-1,1c-0.1,0.3-0.1,0.7,0.1,0.9c0.1,0.2,0.4,0.3,0.6,0.3c0.4,0,0.8-0.4,0.8-0.8c0-0.4-0.2-0.6-0.5-0.7
	c0.3-0.2,0.6-0.2,0.9-0.2H464.7z"/>
    </g>
    <g clip-path="url(#bottomRightCorner)">
        <path class="corner bottom right" fill="#A7965D" d="M468.4,282.3c0.4,1,1.2,1.8,2.2,2.2c0.7,0.3,1.3,0.4,1.9,0.3c0.7,0,1.3-0.2,1.9-0.6c1-0.6,1.7-1.3,2.2-2.2
	c0.4-0.9,0.7-1.9,0.8-2.9c0-0.3,0.1-0.7,0.1-1c0-0.4,0.1-0.7,0.1-1.1c0.2,0.7,0.5,1.4,0.9,2c0.7,1.1,1.9,2,3.2,2.3
	c1.8,0.4,3.8-0.3,4.8-1.9c0.4-0.6,0.6-1.3,0.6-2.1c0-0.3,0-0.6-0.1-0.9l0.2,0.2c0.8,0.8,1.2,1.5,1.1,2.7c0,0.2,0.1,0.3,0.3,0.4
	c1.3,0.4,2.5,1,3.5,1.7c0.1,0.1,0.2,0,0.2,0c0.1-0.1,0.1-0.2,0-0.2c-0.7-1.1-1.3-2.2-1.7-3.5c0-0.2-0.2-0.3-0.4-0.3
	c-1.2,0-1.9-0.3-2.7-1.1l-0.2-0.2c0.3,0.1,0.6,0.1,0.9,0.1c0.7,0,1.5-0.2,2.1-0.6c1.6-1,2.3-3,1.9-4.8c-0.3-1.3-1.1-2.4-2.3-3.2
	c-0.6-0.4-1.3-0.7-2-0.9c0.4-0.1,0.8-0.1,1.1-0.1c0.3,0,0.6-0.1,1-0.1c1.1-0.1,2.1-0.4,2.9-0.8c0.9-0.5,1.7-1.1,2.2-2.2
	c0.3-0.6,0.5-1.2,0.6-1.9c0-0.6-0.1-1.3-0.3-1.9c-0.4-1-1.2-1.8-2.2-2.2c-1.8-0.8-4.1-0.1-4.9,1.8c-0.6,1.5-0.1,3.3,1.4,4
	c0.6,0.3,1.4,0.3,2.1,0c0.3-0.1,0.6-0.3,0.8-0.6c0.2-0.3,0.4-0.6,0.5-0.9c0.1-0.5,0.1-0.9-0.1-1.2c-0.1-0.4-0.4-0.7-0.8-0.9
	c-0.2-0.1-0.5-0.2-0.8-0.2c-0.5,0-1,0.3-1.1,0.8c-0.1,0.3,0,0.6,0.3,0.9c0.4,0.4,1,0.4,1.3,0c0.2-0.2,0.3-0.4,0.3-0.7
	c0.1,0.1,0.2,0.2,0.2,0.3c0.1,0.2,0.1,0.5,0,0.8c-0.1,0.2-0.2,0.5-0.3,0.7c-0.2,0.2-0.4,0.3-0.6,0.4c-0.5,0.2-1.1,0.2-1.6,0
	c-1.2-0.5-1.6-2-1.1-3.2c0.7-1.6,2.6-2,4-1.4c0.8,0.3,1.5,1,1.8,1.9c0.2,0.6,0.3,1.1,0.3,1.7c0,0.6-0.2,1.1-0.5,1.6
	c-0.5,0.9-1.2,1.5-2,1.9c-0.8,0.4-1.7,0.6-2.7,0.8c-0.3,0-0.6,0.1-1,0.1c-0.8,0.1-1.7,0.2-2.7,0.4c-1.3,0.3-2.7,0.6-3.9,1.2
	c-0.8,0.4-1.6,1-2.3,1.7c-0.7,0.7-1.3,1.5-1.7,2.3c-0.6,1.2-1,2.6-1.2,3.9c-0.2,1-0.3,1.9-0.4,2.7c0,0.3-0.1,0.7-0.1,1
	c-0.1,1-0.3,1.9-0.8,2.7c-0.4,0.8-1,1.5-1.9,2c-0.5,0.3-1,0.4-1.6,0.5c-0.5,0-1.1-0.1-1.7-0.3c-0.9-0.4-1.5-1-1.9-1.8
	c-0.6-1.5-0.2-3.4,1.4-4c1.2-0.5,2.6-0.1,3.2,1.1c0.2,0.5,0.2,1,0,1.6c-0.1,0.2-0.2,0.4-0.4,0.6c-0.2,0.2-0.4,0.3-0.7,0.3
	c-0.3,0.1-0.6,0.1-0.8,0c-0.1,0-0.2-0.1-0.3-0.2c0.2,0,0.5-0.1,0.7-0.3c0.4-0.4,0.4-1,0-1.3c-0.2-0.2-0.6-0.3-0.9-0.3
	c-0.5,0.1-0.8,0.6-0.8,1.1c0,0.3,0.1,0.6,0.2,0.8c0.2,0.4,0.5,0.7,0.9,0.8c0.4,0.2,0.8,0.2,1.2,0.1c0.3-0.1,0.7-0.2,0.9-0.5
	c0.3-0.2,0.5-0.5,0.6-0.8c0.3-0.7,0.3-1.4,0-2.1c-0.7-1.6-2.5-2.1-4-1.4C468.3,278.3,467.7,280.5,468.4,282.3z M482.9,268
	c0.4-0.2,0.9-0.4,1.4-0.6c1.2-0.4,2.1-0.5,3.4-0.3c0.8,0.1,1.5,0.4,2.1,0.8c1,0.6,1.7,1.6,2,2.8c0.4,1.5-0.3,3.3-1.7,4.2
	c-0.5,0.3-1.1,0.5-1.7,0.5c-0.7,0-1.3-0.2-1.8-0.6c-0.2-0.2-0.4-0.4-0.6-0.6c-0.4-0.5-0.5-1.1-0.4-1.6c0.2-1,1.2-2,2.3-1.8
	c0.1,0,0.2,0,0.3,0.1c0,0-0.1,0.1-0.1,0.1c-0.4,0.4-0.4,1,0,1.3c0.4,0.4,1,0.4,1.3,0c0.2-0.2,0.3-0.4,0.3-0.7c0-0.4-0.3-0.8-0.6-1
	c-0.3-0.2-0.7-0.4-1.1-0.5c-1.4-0.2-2.8,0.9-3,2.3l0,0c0-0.1-0.1-0.2-0.1-0.3c-0.3-0.9-0.4-1.7-0.2-2.5l0.1-0.2l-0.2-0.1
	c-0.7-0.4-1.4-0.5-2.1-0.5c-0.3,0-0.6,0-0.9,0.1C482,268.6,482.5,268.3,482.9,268z M480.8,269.7c0.5-0.2,1.1-0.2,1.6-0.2
	c0.5,0,1,0.1,1.6,0.3c-0.2,0.8-0.1,1.7,0.2,2.6c0.2,0.4,0.4,0.9,0.6,1.3c-0.4-0.3-0.9-0.5-1.3-0.6c-0.9-0.3-1.8-0.4-2.6-0.2
	c-0.2-0.5-0.3-1-0.3-1.6C480.6,270.8,480.7,270.3,480.8,269.7z M478.6,273.2c0.2-0.5,0.3-1,0.6-1.4c0.3-0.5,0.6-0.9,0.9-1.4
	c0,0.3-0.1,0.6-0.1,0.9c0,0.7,0.2,1.4,0.5,2.1l0.1,0.2l0.2-0.1c0.8-0.2,1.6-0.1,2.5,0.2c0.1,0,0.2,0.1,0.3,0.1l0,0
	c-1.4,0.3-2.5,1.6-2.3,3c0.1,0.4,0.2,0.8,0.5,1.1c0.3,0.3,0.6,0.6,1,0.6c0.2,0,0.5-0.1,0.7-0.3c0.4-0.4,0.4-1,0-1.3
	c-0.4-0.4-1-0.4-1.3,0c0,0-0.1,0.1-0.1,0.1c0-0.1,0-0.2-0.1-0.3c-0.2-1.1,0.8-2.1,1.8-2.3c0.5-0.1,1.1,0,1.6,0.4
	c0.3,0.2,0.5,0.4,0.6,0.6c0.4,0.5,0.6,1.2,0.6,1.8c0,0.6-0.2,1.2-0.5,1.7c-0.8,1.4-2.6,2-4.2,1.7c-1.1-0.3-2.1-1-2.8-2
	c-0.4-0.6-0.7-1.3-0.8-2.1C478,275.3,478.2,274.4,478.6,273.2z"/>
    </g>
    <g clip-path="url(#bottomLeftBar)">
        <path class="bar bottom left" fill="#A7965D" d="M32.9,282.3c-0.3,0-0.6,0-0.9,0.2c0.3,0.1,0.5,0.3,0.5,0.7c0,0.4-0.3,0.8-0.8,0.8c-0.3,0-0.5-0.1-0.6-0.3
	c-0.2-0.3-0.2-0.6-0.1-0.9c0.2-0.5,0.5-0.8,1-1c0.3-0.1,0.6-0.1,0.9-0.1l3.5,0h146.9l3.5,0c0.3,0,0.6,0,0.9,0.1c0.5,0.1,0.9,0.4,1,1
	c0.1,0.3,0.1,0.7-0.1,0.9c-0.1,0.2-0.4,0.3-0.6,0.3c-0.4,0-0.8-0.4-0.8-0.8c0-0.4,0.2-0.6,0.5-0.7c-0.3-0.2-0.6-0.2-0.9-0.2H32.9z"
            />
    </g>
    <g clip-path="url(#bottomLeftCorner)">
        <path class="corner bottom left" fill="#A7965D" d="M27.4,277.5c-1.5-0.6-3.3-0.1-4,1.4c-0.3,0.6-0.3,1.4,0,2.1c0.1,0.3,0.3,0.6,0.6,0.8
	c0.3,0.2,0.6,0.4,0.9,0.5c0.5,0.1,0.9,0.1,1.2-0.1c0.4-0.1,0.7-0.4,0.9-0.8c0.1-0.2,0.2-0.5,0.2-0.8c0-0.5-0.3-1-0.8-1.1
	c-0.3-0.1-0.6,0-0.9,0.3c-0.4,0.4-0.4,1,0,1.3c0.2,0.2,0.4,0.3,0.7,0.3c-0.1,0.1-0.2,0.2-0.3,0.2c-0.2,0.1-0.5,0.1-0.8,0
	c-0.2-0.1-0.5-0.2-0.7-0.3c-0.2-0.2-0.3-0.4-0.4-0.6c-0.2-0.5-0.2-1.1,0-1.6c0.5-1.2,2-1.6,3.2-1.1c1.6,0.7,2,2.6,1.4,4
	c-0.3,0.8-1,1.5-1.9,1.8c-0.6,0.2-1.1,0.3-1.7,0.3c-0.6,0-1.1-0.2-1.6-0.5c-0.9-0.5-1.5-1.2-1.9-2c-0.4-0.8-0.6-1.7-0.8-2.7
	c0-0.3-0.1-0.6-0.1-1c-0.1-0.8-0.2-1.7-0.4-2.7c-0.3-1.3-0.6-2.7-1.2-3.9c-0.4-0.8-1-1.6-1.7-2.3c-0.7-0.7-1.5-1.3-2.3-1.7
	c-1.2-0.6-2.6-1-3.9-1.2c-1-0.2-1.9-0.3-2.7-0.4c-0.3,0-0.7-0.1-1-0.1c-1-0.1-1.9-0.3-2.7-0.8c-0.8-0.4-1.5-1-2-1.9
	c-0.3-0.5-0.4-1-0.5-1.6c0-0.5,0.1-1.1,0.3-1.7c0.4-0.9,1-1.5,1.8-1.9c1.5-0.6,3.4-0.2,4,1.4c0.5,1.2,0.1,2.6-1.1,3.2
	c-0.5,0.2-1,0.2-1.6,0c-0.2-0.1-0.4-0.2-0.6-0.4c-0.2-0.2-0.3-0.4-0.3-0.7c-0.1-0.3-0.1-0.6,0-0.8c0-0.1,0.1-0.2,0.2-0.3
	c0,0.2,0.1,0.5,0.3,0.7c0.4,0.4,1,0.4,1.3,0c0.2-0.2,0.3-0.6,0.3-0.9c-0.1-0.5-0.6-0.8-1.1-0.8c-0.3,0-0.6,0.1-0.8,0.2
	c-0.4,0.2-0.7,0.5-0.8,0.9c-0.2,0.4-0.2,0.8-0.1,1.2c0.1,0.3,0.2,0.7,0.5,0.9c0.2,0.3,0.5,0.5,0.8,0.6c0.7,0.3,1.4,0.3,2.1,0
	c1.6-0.7,2.1-2.5,1.4-4c-0.8-1.9-3.1-2.5-4.9-1.8c-1,0.4-1.8,1.2-2.2,2.2c-0.3,0.7-0.4,1.3-0.3,1.9c0,0.7,0.2,1.3,0.6,1.9
	c0.6,1,1.3,1.7,2.2,2.2c0.9,0.4,1.9,0.7,2.9,0.8c0.3,0,0.7,0.1,1,0.1c0.4,0,0.7,0.1,1.1,0.1c-0.7,0.2-1.4,0.5-2,0.9
	c-1.1,0.7-2,1.9-2.3,3.2c-0.4,1.8,0.3,3.8,1.9,4.8c0.6,0.4,1.3,0.6,2.1,0.6c0.3,0,0.6,0,0.9-0.1l-0.2,0.2c-0.8,0.8-1.5,1.2-2.7,1.1
	c-0.2,0-0.3,0.1-0.4,0.3c-0.4,1.3-1,2.5-1.7,3.5c-0.1,0.1,0,0.2,0,0.2c0.1,0.1,0.2,0.1,0.2,0c1.1-0.7,2.2-1.3,3.5-1.7
	c0.2,0,0.3-0.2,0.3-0.4c0-1.2,0.3-1.9,1.1-2.7l0.2-0.2c-0.1,0.3-0.1,0.6-0.1,0.9c0,0.7,0.2,1.5,0.6,2.1c1,1.6,3,2.3,4.8,1.9
	c1.3-0.3,2.4-1.1,3.2-2.3c0.4-0.6,0.7-1.3,0.9-2c0.1,0.4,0.1,0.8,0.1,1.1c0,0.3,0.1,0.6,0.1,1c0.1,1.1,0.4,2.1,0.8,2.9
	c0.5,0.9,1.1,1.7,2.2,2.2c0.6,0.3,1.2,0.5,1.9,0.6c0.6,0,1.3-0.1,1.9-0.3c1-0.4,1.8-1.2,2.2-2.2C29.9,280.5,29.3,278.3,27.4,277.5z
	 M16,268.9c-0.3,0-0.6-0.1-0.9-0.1c-0.7,0-1.4,0.2-2.1,0.5l-0.2,0.1l0.1,0.2c0.2,0.8,0.1,1.6-0.2,2.5c0,0.1-0.1,0.2-0.1,0.3l0,0
	c-0.3-1.4-1.6-2.5-3-2.3c-0.4,0.1-0.8,0.2-1.1,0.5c-0.3,0.3-0.6,0.6-0.6,1c0,0.2,0.1,0.5,0.3,0.7c0.4,0.4,1,0.4,1.3,0
	c0.4-0.4,0.4-1,0-1.3c0,0-0.1-0.1-0.1-0.1c0.1,0,0.2,0,0.3-0.1c1.1-0.2,2.1,0.8,2.3,1.8c0.1,0.5,0,1.1-0.4,1.6
	c-0.2,0.3-0.4,0.5-0.6,0.6c-0.5,0.4-1.2,0.6-1.8,0.6c-0.6,0-1.2-0.2-1.7-0.5c-1.4-0.8-2-2.6-1.7-4.2c0.3-1.1,1-2.1,2-2.8
	c0.6-0.4,1.3-0.7,2.1-0.8c1.3-0.3,2.2-0.1,3.4,0.3c0.5,0.2,1,0.3,1.4,0.6C15.1,268.3,15.6,268.6,16,268.9z M17,271.3
	c0,0.5-0.1,1-0.3,1.6c-0.8-0.2-1.7-0.1-2.6,0.2c-0.4,0.2-0.9,0.4-1.3,0.6c0.3-0.4,0.5-0.9,0.6-1.3c0.3-0.9,0.4-1.8,0.2-2.6
	c0.5-0.2,1-0.3,1.6-0.3c0.5,0,1.1,0.1,1.6,0.2C16.9,270.3,17,270.8,17,271.3z M19.3,276.6c-0.1,0.8-0.4,1.5-0.8,2.1
	c-0.6,1-1.6,1.7-2.8,2c-1.5,0.4-3.3-0.3-4.2-1.7c-0.3-0.5-0.5-1.1-0.5-1.7c0-0.7,0.2-1.3,0.6-1.8c0.2-0.2,0.4-0.4,0.6-0.6
	c0.5-0.4,1.1-0.5,1.6-0.4c1,0.2,2,1.2,1.8,2.3c0,0.1,0,0.2-0.1,0.3c0,0-0.1-0.1-0.1-0.1c-0.4-0.4-1-0.4-1.3,0c-0.4,0.4-0.4,1,0,1.3
	c0.2,0.2,0.4,0.3,0.7,0.3c0.4,0,0.8-0.3,1-0.6c0.2-0.3,0.4-0.7,0.5-1.1c0.2-1.4-0.9-2.8-2.3-3l0,0c0.1,0,0.2-0.1,0.3-0.1
	c0.9-0.3,1.7-0.4,2.5-0.2l0.2,0.1l0.1-0.2c0.4-0.7,0.5-1.4,0.5-2.1c0-0.3,0-0.6-0.1-0.9c0.3,0.4,0.6,0.9,0.9,1.4
	c0.2,0.4,0.4,0.9,0.6,1.4C19.4,274.4,19.6,275.3,19.3,276.6z"/>
    </g>
    <g clip-path="url(#diamondRight)">
        <path class="diamond right" fill="#A7965D" d="M489.4,142.5c0,0.2,0.2,0.4,0.4,0.4c1.2,0,2,0.4,2.9,1.3c0.1,0.2,0.4,0.2,0.6,0.1c1.4-0.8,2.9-1.3,4.5-1.6
	c0.1,0,0.2-0.1,0.2-0.2c0-0.1-0.1-0.2-0.2-0.2c-1.6-0.3-3.1-0.8-4.5-1.6c-0.2-0.1-0.4-0.1-0.6,0.1c-0.9,0.9-1.7,1.3-2.9,1.3
	C489.6,142.1,489.4,142.2,489.4,142.5L489.4,142.5z"/>
    </g>
    <g clip-path="url(#sideBarLeftBottom)">
        <path class="side bar left bottom" fill="#A7965D" d="M4.4,148c0-0.3,0-0.6-0.2-0.9c-0.1,0.3-0.3,0.5-0.7,0.5c-0.4,0-0.8-0.3-0.8-0.8c0-0.3,0.1-0.5,0.3-0.6
	c0.3-0.2,0.6-0.2,0.9-0.1c0.5,0.2,0.8,0.5,1,1c0.1,0.3,0.1,0.6,0.1,0.9l0,3.5v98.4l0,3.5c0,0.3,0,0.6-0.1,0.9c-0.1,0.5-0.4,0.9-1,1
	c-0.3,0.1-0.7,0.1-0.9-0.1c-0.2-0.1-0.3-0.4-0.3-0.6c0-0.4,0.4-0.8,0.8-0.8c0.4,0,0.6,0.2,0.7,0.5c0.2-0.3,0.2-0.6,0.2-0.9V148z"/>
    </g>
    <g clip-path="url(#sideBarLeftTop)">
        <path class="side bar top left" fill="#A7965D" d="M4.4,31.3c0-0.3,0-0.6-0.2-0.9c-0.1,0.3-0.3,0.5-0.7,0.5c-0.4,0-0.8-0.3-0.8-0.8c0-0.3,0.1-0.5,0.3-0.6
	c0.3-0.2,0.6-0.2,0.9-0.1c0.5,0.2,0.8,0.5,1,1C5,30.8,5,31.1,5,31.4l0,3.5v98.4l0,3.5c0,0.3,0,0.6-0.1,0.9c-0.1,0.5-0.4,0.9-1,1
	c-0.3,0.1-0.7,0.1-0.9-0.1c-0.2-0.1-0.3-0.4-0.3-0.6c0-0.4,0.4-0.8,0.8-0.8c0.4,0,0.6,0.2,0.7,0.5c0.2-0.3,0.2-0.6,0.2-0.9V31.3z"/>
    </g>
    <g clip-path="url(#diamondLeft)">
        <path class="diamond left" fill="#A7965D" d="M8.5,142.2c0-0.1-0.1-0.3-0.3-0.3c-1.3,0-2.1-0.3-3-1.3c-0.1-0.2-0.4-0.2-0.6-0.1c-1.4,0.8-2.9,1.3-4.5,1.6
	c-0.1,0-0.2,0.1-0.2,0.2c0,0.1,0.1,0.2,0.2,0.2c1.6,0.3,3.1,0.8,4.5,1.6c0.2,0.1,0.4,0.1,0.6-0.1c0.9-0.9,1.7-1.3,2.9-1.3
	c0.2,0,0.4-0.2,0.4-0.4L8.5,142.2z"/>
    </g>
</svg>